<?xml version="1.0" encoding="UTF-8"?>
<svg xmlns="http://www.w3.org/2000/svg" xml:space="preserve" width="130px" height="196px" version="1.1" style="shape-rendering:geometricPrecision; text-rendering:geometricPrecision; image-rendering:optimizeQuality; fill-rule:evenodd; clip-rule:evenodd"
viewBox="0 0 362.78 547.89"
 xmlns:xlink="http://www.w3.org/1999/xlink">
 <g id="Camada_x0020_1">
  <path fill="#f1f1f1" fillRule="nonzero" d="M362.78 0l0 5.99 -2.58 -3.91 -79.61 120.23 82.19 0 0 5.17 -82.53 0c26.65,46.24 53.3,92.48 79.95,138.73l2.58 -4.48c0,95.39 0,190.77 0,286.16 -120.91,0 -241.86,-0.01 -362.78,-0.01l0 -11.14 84.36 -127.41 -84.36 -42.47 0 -8.37 167.95 -84.54 -167.95 0 0 -12.22c25.79,-44.75 51.58,-89.5 77.37,-134.25l-77.37 0 0 -5.17 77.02 0 -77.02 -116.33 0 -5.98 8.28 0 167.95 84.55 0 -84.55 5.15 0 0 84.55 167.96 -84.55 13.44 0zm-183.97 540.16l79.95 -138.74 -159.9 0 79.95 138.74zm84.55 -136.43l-80.1 139.01 172.14 0 -92.04 -139.01zm-89 139.01l-80.11 -139.01c-30.68,46.33 -61.36,92.67 -92.04,139.01l172.15 0zm96.03 -137.73l84.08 -42.33 -168.16 -84.66c28.03,42.33 56.05,84.66 84.08,126.99zm-99.08 -126.99l-168.16 84.66 84.08 42.33c28.02,-42.33 56.05,-84.66 84.08,-126.99zm-72.11 118.24l159.21 0 -79.6 -120.23 -79.61 120.23zm90.47 -122.31l167.95 84.54 0 -84.54 -167.95 0zm167.95 92.91l-84.37 42.47 84.37 127.41 0 -169.88zm-183.61 -98.08l-92.04 -139 -80.1 139 172.14 0zm181.73 0l-80.1 -139c-30.68,46.34 -61.36,92.67 -92.04,139.01l172.14 -0.01zm-350.82 -264.7l84.08 126.98 84.08 -42.33 -168.16 -84.65zm86.94 131.31l84.38 127.42 -0.01 -169.9 -84.37 42.48zm89.52 127.42l84.37 -127.42 -84.37 -42.48 0 169.9zm87.24 -131.75l84.08 -126.98 -168.16 84.65 84.08 42.33z"/>
 </g>
</svg>
